<svg width="30" height="30" viewBox="0 0 30 30" fill="none" xmlns="http://www.w3.org/2000/svg">
<g id="chef-hat-one 1">
<path id="Vector" d="M8.125 15.0779C5.63283 14.599 3.75 12.4069 3.75 9.775C3.75 6.79269 6.16766 4.375 9.15 4.375C9.62913 4.375 10.0936 4.43739 10.5359 4.5545C11.5249 3.30308 13.0561 2.5 14.775 2.5C16.544 2.5 18.1143 3.35061 19.0992 4.66514C19.6482 4.47707 20.2372 4.375 20.85 4.375C23.8323 4.375 26.25 6.79269 26.25 9.775C26.25 12.4069 24.3672 14.599 21.875 15.0779V25C21.875 25.6904 21.3154 26.25 20.625 26.25H9.375C8.68463 26.25 8.125 25.6904 8.125 25V15.0779Z" fill="#D9D9D9" stroke="#333333" stroke-width="2" stroke-linecap="round" stroke-linejoin="round"/>
<path id="Vector_2" d="M8.125 19.375H21.875" stroke="#333333" stroke-width="2" stroke-linecap="round" stroke-linejoin="round"/>
<path id="Vector_3" d="M12.5 15.625V19.375" stroke="#333333" stroke-width="2" stroke-linecap="round" stroke-linejoin="round"/>
<path id="Vector_4" d="M21.875 17.5V21.25" stroke="#333333" stroke-width="2" stroke-linecap="round" stroke-linejoin="round"/>
<path id="Vector_5" d="M8.125 17.5V21.25" stroke="#333333" stroke-width="2" stroke-linecap="round" stroke-linejoin="round"/>
</g>
</svg>
