<svg width="19" height="18" viewBox="0 0 19 18" fill="none" xmlns="http://www.w3.org/2000/svg">
<g id="fire 1">
<path id="Vector" d="M9.5 16.5C12.588 16.5 15.1249 14.0528 15.1249 10.9118C15.1249 10.1407 15.0857 9.31406 14.6583 8.02935C14.2309 6.74468 14.1448 6.57885 13.6928 5.78546C13.4998 7.40453 12.4666 8.0793 12.2042 8.28097C12.2042 8.07116 11.5792 5.75096 10.6316 4.36271C9.70137 3 8.43628 2.10597 7.69449 1.5C7.69449 2.65116 7.37071 4.36271 6.90702 5.23478C6.44334 6.10684 6.35626 6.1386 5.77707 6.78758C5.19792 7.43655 4.93209 7.63699 4.44778 8.42441C3.96349 9.21187 3.875 10.2607 3.875 11.0318C3.875 14.1728 6.41199 16.5 9.5 16.5Z" fill="#FC693A" stroke="#AF3F3F" stroke-width="2" stroke-linejoin="round"/>
</g>
</svg>
