<svg width="19" height="18" viewBox="0 0 19 18" fill="none" xmlns="http://www.w3.org/2000/svg">
<g id="vegetable-basket 1">
<g id="Group 10">
<g id="Vector">
<path d="M4.25001 5.25H3.26669C2.59272 5.25 2.06999 5.83856 2.14956 6.50783L3.1698 15.0885C3.21466 15.4659 3.53459 15.75 3.91455 15.75H15.3025C15.6887 15.75 16.0118 15.4567 16.049 15.0723L16.8806 6.48341C16.9446 5.82233 16.425 5.25 15.7608 5.25H14.75" fill="#FFC147"/>
<path d="M4.25001 5.25H3.26669C2.59272 5.25 2.06999 5.83856 2.14956 6.50783L3.1698 15.0885C3.21466 15.4659 3.53459 15.75 3.91455 15.75H15.3025C15.6887 15.75 16.0118 15.4567 16.049 15.0723L16.8806 6.48341C16.9446 5.82233 16.425 5.25 15.7608 5.25H14.75" stroke="#333333" stroke-width="2" stroke-linecap="round" stroke-linejoin="round"/>
</g>
<path id="Vector_2" d="M2.375 8.25H16.625" stroke="#333333" stroke-width="2" stroke-linecap="round" stroke-linejoin="round"/>
</g>
<path id="Vector_3" d="M6.125 10.875H12.875" stroke="#333333" stroke-width="2" stroke-linecap="round" stroke-linejoin="round"/>
<path id="Vector_4" d="M6.875 13.5H12.125" stroke="#333333" stroke-width="2" stroke-linecap="round" stroke-linejoin="round"/>
<path id="Vector_5" d="M9.5 2.25C7.84314 2.25 6.5 4.84676 6.5 8.05001C6.5 8.11695 6.5006 8.18363 6.50176 8.25H12.4982C12.4994 8.18363 12.5 8.11695 12.5 8.05001C12.5 4.84676 11.1569 2.25 9.5 2.25Z" fill="#77F44B" stroke="#333333" stroke-width="2" stroke-linecap="round" stroke-linejoin="round"/>
</g>
</svg>
